<svg width="25" height="36" fill="none" xmlns="http://www.w3.org/2000/svg"><path d="M0 17.9A17.38 17.38 0 0 1 5.162 5.67 17.565 17.565 0 0 1 17.483.6h1.28v2.766h-1.261a14.774 14.774 0 0 0-10.37 4.252 14.61 14.61 0 0 0-4.355 10.281H0v.002ZM5.333 35.4v-2.766h1.28a14.77 14.77 0 0 0 10.366-4.258 14.617 14.617 0 0 0 4.348-10.282h2.781a17.374 17.374 0 0 1-5.165 12.233 17.563 17.563 0 0 1-12.328 5.067l-1.282.005Z" fill="#9C7CFF"/><path d="M5.333 30.094V27.33h1.28a9.424 9.424 0 0 0 6.597-2.701 9.314 9.314 0 0 0 2.785-6.534h2.78a12.074 12.074 0 0 1-3.601 8.483 12.212 12.212 0 0 1-8.56 3.51l-1.28.007ZM5.333 17.9a12.083 12.083 0 0 1 3.604-8.49 12.216 12.216 0 0 1 8.566-3.51h1.28v2.766h-1.28c-2.471 0-4.845.97-6.603 2.698a9.314 9.314 0 0 0-2.788 6.537H5.333Z" fill="#9C7CFF"/><path d="M5.328 24.79v-2.764h1.28a4.053 4.053 0 0 0 2.827-1.147 4.021 4.021 0 0 0 1.22-2.783v-.102a6.777 6.777 0 0 1 2.01-4.801 6.854 6.854 0 0 1 4.835-1.986h1.28v2.765H17.5a4.061 4.061 0 0 0-2.834 1.144 4.022 4.022 0 0 0-1.223 2.787v.101a6.775 6.775 0 0 1-2.003 4.802 6.856 6.856 0 0 1-4.829 1.991l-1.283-.006Z" fill="#9C7CFF"/></svg>