<svg width="643" height="643" fill="none" xmlns="http://www.w3.org/2000/svg"><path fill="#00FFAD" d="M0 0h643v643H0z"/><path d="M447.21 246.604a11.217 11.217 0 0 1-7.985 3.351h-282.91c-9.999 0-15.065-12.194-8.074-19.436l46.405-48.077A11.222 11.222 0 0 1 202.72 179h283.965c10.06 0 15.099 12.321 7.985 19.527l-47.46 48.077ZM447.21 461.326a11.363 11.363 0 0 1-7.985 3.267h-282.91c-9.999 0-15.065-11.889-8.074-18.95l46.405-46.875a11.363 11.363 0 0 1 8.074-3.356h283.965c10.06 0 15.099 12.013 7.985 19.039l-47.46 46.875ZM447.21 290.473a11.363 11.363 0 0 0-7.985-3.267h-282.91c-9.999 0-15.065 11.889-8.074 18.95l46.405 46.875a11.363 11.363 0 0 0 8.074 3.356h283.965c10.06 0 15.099-12.013 7.985-19.039l-47.46-46.875Z" fill="#000"/></svg>